<?xml version="1.0" standalone="no"?>
<!DOCTYPE svg PUBLIC "-//W3C//DTD SVG 20010904//EN"
 "http://www.w3.org/TR/2001/REC-SVG-20010904/DTD/svg10.dtd">
<svg version="1.0" xmlns="http://www.w3.org/2000/svg"
 width="355.000000pt" height="422.000000pt" viewBox="0 0 355.000000 422.000000"
 preserveAspectRatio="xMidYMid meet">
<metadata>
Created by potrace 1.13, written by Peter Selinger 2001-2015
</metadata>
<g transform="translate(0.000000,422.000000) scale(0.100000,-0.100000)"
fill="#000000" stroke="none">
<path d="M0 3343 l0 -878 875 875 c481 481 875 876 875 877 0 2 -394 3 -875 3
l-875 0 0 -877z"/>
<path d="M2670 3345 c481 -481 876 -875 877 -875 2 0 3 394 3 875 l0 875 -877
0 -878 0 875 -875z"/>
<path d="M890 3335 c-481 -481 -875 -880 -876 -888 -1 -8 310 -326 692 -708
l694 -694 -191 400 -192 400 -497 295 c-274 162 -497 297 -495 298 2 2 220
-125 486 -282 265 -158 483 -285 486 -282 2 2 -57 131 -131 287 l-136 283 27
45 c15 25 98 167 185 315 88 147 158 270 156 271 -2 2 -243 -139 -536 -312
-293 -173 -535 -313 -536 -312 -2 2 243 149 544 327 l548 324 324 548 c178
301 325 546 327 544 1 -1 -139 -243 -312 -536 -173 -293 -314 -534 -312 -536
1 -2 141 79 311 179 169 100 313 182 319 182 6 0 150 -82 319 -182 170 -100
310 -181 311 -179 2 2 -138 243 -312 536 -173 294 -313 535 -311 537 1 2 149
-244 327 -545 l323 -549 548 -323 c301 -178 546 -325 544 -327 -1 -1 -243 139
-536 312 -293 173 -534 314 -536 312 -1 -1 75 -135 171 -296 95 -162 179 -304
185 -315 10 -19 -7 -60 -124 -304 -74 -155 -133 -284 -131 -286 3 -3 221 124
486 282 266 157 484 284 486 282 2 -1 -221 -136 -495 -298 l-497 -295 -192
-400 -191 -400 693 693 c382 382 694 700 694 707 0 17 -1740 1758 -1760 1761
-8 1 -407 -391 -887 -871z"/>
<path d="M1262 2957 l-512 -512 513 -513 512 -512 513 513 512 512 -513 513
-512 512 -513 -513z"/>
<path d="M1429 3277 l-305 -182 -97 -165 c-54 -91 -136 -230 -183 -310 l-85
-145 490 490 c270 269 491 491 491 492 0 4 12 11 -311 -180z"/>
<path d="M2295 2971 c269 -270 491 -491 492 -491 1 0 -21 40 -50 88 -28 49
-110 188 -181 308 l-130 220 -165 97 c-91 54 -231 136 -311 183 l-145 85 490
-490z"/>
<path d="M0 1212 l0 -1212 882 0 883 0 -343 343 c-188 188 -342 349 -342 357
0 8 71 86 157 172 l158 158 -698 698 -697 697 0 -1213z"/>
<path d="M881 2150 c71 -149 127 -276 123 -282 -4 -7 -3 -8 4 -4 7 4 12 3 12
-2 0 -5 154 -101 343 -213 188 -111 353 -209 367 -217 14 -9 -200 210 -475
486 -275 276 -501 502 -502 502 -1 0 57 -122 128 -270z"/>
<path d="M2295 1918 c-275 -276 -489 -495 -475 -486 14 8 179 106 368 217 188
112 342 208 342 213 0 5 5 6 12 2 7 -4 8 -3 4 4 -4 6 52 133 123 282 71 148
129 270 128 270 -1 0 -227 -226 -502 -502z"/>
<path d="M2850 1725 l-695 -695 158 -158 c86 -86 157 -164 157 -172 0 -8 -154
-169 -342 -357 l-343 -343 883 0 882 0 0 1210 c0 666 -1 1210 -3 1210 -1 0
-315 -313 -697 -695z"/>
<path d="M1040 1826 c0 -10 359 -759 368 -768 4 -4 86 71 182 167 96 96 172
176 170 178 -3 2 -156 93 -340 202 -184 109 -345 205 -357 213 -13 8 -23 11
-23 8z"/>
<path d="M2155 1619 c-192 -114 -354 -210 -360 -212 -5 -3 69 -84 165 -181 96
-96 178 -172 182 -168 11 11 370 763 366 767 -1 1 -160 -91 -353 -206z"/>
<path d="M1430 1045 l-345 -345 345 -345 345 -345 345 345 345 345 -345 345
-345 345 -345 -345z"/>
</g>
</svg>
