<?xml version="1.0" standalone="no"?>
<!DOCTYPE svg PUBLIC "-//W3C//DTD SVG 20010904//EN"
 "http://www.w3.org/TR/2001/REC-SVG-20010904/DTD/svg10.dtd">
<svg version="1.0" xmlns="http://www.w3.org/2000/svg"
 width="300.000000pt" height="300.000000pt" viewBox="0 0 300.000000 300.000000"
 preserveAspectRatio="xMidYMid meet">
<metadata>
Created by potrace 1.10, written by Peter Selinger 2001-2011
</metadata>
<g transform="translate(0.000000,300.000000) scale(0.050000,-0.050000)"
fill="#000064" stroke="none">
<path d="M2596 5969 c-1623 -221 -2782 -1734 -2567 -3349 276 -2073 2498
-3236 4352 -2278 1584 819 2100 2836 1106 4329 -624 939 -1766 1452 -2891
1298z m-876 -1609 l0 -80 -200 0 -200 0 0 80 0 80 200 0 200 0 0 -80z m3379
-199 c29 -53 29 -2269 0 -2322 -25 -48 -4127 -63 -4175 -15 -35 35 -35 2317 0
2352 48 48 4150 33 4175 -15z"/>
<path d="M2872 3938 c-60 -71 -63 -98 -21 -180 77 -148 287 -112 321 55 31
159 -193 253 -300 125z"/>
<path d="M3715 3889 c-683 -166 -932 -1017 -446 -1527 525 -550 1449 -260
1573 494 105 636 -495 1186 -1127 1033z m501 -193 c384 -142 576 -634 398
-1024 -331 -722 -1422 -478 -1424 318 -1 549 505 897 1026 706z"/>
</g>
</svg>
