<!DOCTYPE svg PUBLIC "-//W3C//DTD SVG 20010904//EN" "http://www.w3.org/TR/2001/REC-SVG-20010904/DTD/svg10.dtd">
<svg version="1.0" xmlns="http://www.w3.org/2000/svg" width="752px" height="753px" viewBox="0 0 7520 7530" preserveAspectRatio="xMidYMid meet">
<g id="layer1" fill="#000064" stroke="none">
 <path d="M0 3765 l0 -3765 3760 0 3760 0 0 3765 0 3765 -3760 0 -3760 0 0 -3765z m6340 1500 c64 -33 60 67 60 -1500 0 -1327 -1 -1429 -17 -1456 -38 -64 169 -59 -2618 -59 -2803 0 -2574 -6 -2615 63 -20 31 -20 61 -20 1450 0 1553 -4 1462 58 1499 25 16 194 17 2575 18 2258 0 2551 -2 2577 -15z m-4172 -3197 l-3 -93 -255 0 -255 0 -3 93 -3 92 261 0 261 0 -3 -92z"/>
 <path d="M4745 4914 c-359 -60 -670 -284 -839 -604 -259 -491 -131 -1098 304 -1445 145 -115 337 -201 530 -236 83 -15 285 -15 373 0 358 60 672 291 839 617 190 370 164 819 -68 1169 -245 370 -706 572 -1139 499z m422 -229 c112 -29 263 -105 353 -178 144 -117 275 -323 321 -502 111 -440 -114 -909 -525 -1095 -136 -62 -204 -75 -391 -75 -132 1 -185 5 -235 19 -497 137 -795 629 -683 1129 58 262 244 503 483 626 117 60 190 82 355 105 62 9 233 -7 322 -29z"/>
 <path d="M3664 2911 c-69 -31 -124 -117 -124 -193 0 -41 29 -110 58 -141 83 -87 213 -96 302 -19 157 134 66 373 -142 372 -30 0 -71 -9 -94 -19z"/>
 </g>
<g id="layer2" fill="#fefefe" stroke="none">
 <path d="M1188 5262 c-62 -37 -58 54 -58 -1499 0 -1389 0 -1419 20 -1450 41 -69 -188 -63 2615 -63 2787 0 2580 -5 2618 59 16 27 17 129 17 1456 0 1567 4 1467 -60 1500 -26 13 -319 15 -2577 15 -2381 -1 -2550 -2 -2575 -18z m3909 -347 c709 -115 1141 -814 927 -1498 -90 -286 -314 -546 -589 -684 -76 -38 -232 -89 -322 -104 -88 -15 -290 -15 -373 0 -481 87 -847 441 -944 913 -53 257 -13 534 110 768 229 433 718 682 1191 605z m-1249 -2001 c149 -62 177 -250 52 -356 -115 -99 -294 -51 -345 91 -26 76 -14 144 38 207 57 68 169 94 255 58z"/>
 <path d="M4845 4714 c-165 -23 -238 -45 -355 -105 -239 -123 -425 -364 -483 -626 -100 -443 127 -896 539 -1077 139 -61 190 -70 379 -71 147 0 180 3 248 23 435 126 720 522 694 966 -8 138 -36 241 -102 371 -155 309 -447 501 -790 518 -55 3 -113 3 -130 1z"/>
 <path d="M1652 2068 l3 -93 255 0 255 0 3 93 3 92 -261 0 -261 0 3 -92z"/>
 </g>

</svg>