<!DOCTYPE svg PUBLIC "-//W3C//DTD SVG 20010904//EN" "http://www.w3.org/TR/2001/REC-SVG-20010904/DTD/svg10.dtd">
<svg version="1.0" xmlns="http://www.w3.org/2000/svg" width="750px" height="751px" viewBox="0 0 7500 7510" preserveAspectRatio="xMidYMid meet">
<g id="layer1" fill="#000000" stroke="none">
 <path d="M4911 4934 c-242 -41 -452 -153 -627 -336 -153 -160 -249 -346 -289 -564 -25 -132 -16 -364 19 -494 52 -189 171 -387 312 -520 307 -289 762 -383 1154 -239 475 175 776 650 729 1152 -28 293 -150 534 -373 736 -240 218 -597 320 -925 265z m424 -183 c329 -89 586 -348 676 -681 31 -112 34 -357 5 -460 -25 -95 -53 -168 -88 -230 -169 -301 -454 -479 -798 -497 -285 -14 -583 122 -767 350 -297 369 -278 904 44 1247 139 148 300 238 513 285 95 21 310 14 415 -14z"/>
 <path d="M3681 2905 c-51 -16 -107 -66 -127 -112 -18 -41 -18 -124 0 -166 7 -18 33 -50 56 -70 160 -137 404 11 345 210 -15 50 -59 104 -105 128 -42 22 -120 26 -169 10z"/>
 </g>
<g id="layer2" fill="#fdfdfd" stroke="none">
 <path d="M1155 5239 l-35 -31 0 -1450 0 -1451 36 -33 35 -34 2566 0 2565 0 34 34 34 34 0 1450 0 1450 -31 31 -31 31 -2568 0 -2569 0 -36 -31z m4115 -304 c589 -96 994 -618 939 -1211 -57 -611 -608 -1065 -1220 -1003 -466 46 -853 371 -975 819 -35 130 -44 362 -19 494 27 148 87 295 174 426 48 74 179 209 260 269 240 178 548 253 841 206z m-1420 -2040 c104 -54 146 -198 85 -292 -72 -110 -225 -132 -325 -46 -51 44 -70 85 -70 153 0 63 18 106 62 148 62 59 174 75 248 37z"/>
 <path d="M4920 4765 c-213 -47 -374 -137 -513 -285 -408 -435 -312 -1151 197 -1458 466 -282 1055 -123 1324 358 35 62 63 135 88 230 29 103 26 348 -5 460 -90 333 -347 592 -676 681 -105 28 -320 35 -415 14z"/>
 <path d="M1640 2060 l0 -100 260 0 260 0 0 100 0 100 -260 0 -260 0 0 -100z"/>
 </g>

</svg>