<?xml version="1.0" standalone="no"?>
<!DOCTYPE svg PUBLIC "-//W3C//DTD SVG 20010904//EN"
 "http://www.w3.org/TR/2001/REC-SVG-20010904/DTD/svg10.dtd">
<svg version="1.0" xmlns="http://www.w3.org/2000/svg"
 width="300.000000pt" height="300.000000pt" viewBox="0 0 300.000000 300.000000"
 preserveAspectRatio="xMidYMid meet">
<metadata>
Created by potrace 1.10, written by Peter Selinger 2001-2011
</metadata>
<g transform="translate(0.000000,300.000000) scale(0.050000,-0.050000)"
fill="#000064" stroke="none">
<path d="M2596 5969 c-1623 -221 -2782 -1734 -2567 -3349 276 -2073 2498
-3236 4352 -2278 1584 819 2100 2836 1106 4329 -624 939 -1766 1452 -2891
1298z m2144 -1004 c182 -113 329 -211 327 -217 -1 -6 -71 -122 -156 -258
l-153 -247 -404 252 c-222 138 -406 252 -409 254 -4 3 107 186 248 407 l68
107 75 -46 c41 -25 223 -139 404 -252z m-355 -604 c162 -102 295 -194 295
-204 0 -27 -1576 -2524 -1605 -2544 -19 -12 -719 400 -812 479 -6 4 883 1424
1522 2433 l98 154 104 -66 c57 -36 236 -150 398 -252z m-2885 -1746 l0 -364
-185 -186 -184 -185 183 -185 183 -185 7 -365 c3 -201 1 -363 -6 -360 -7 3
-260 248 -563 545 l-550 540 540 555 c297 305 548 555 558 555 9 0 17 -164 17
-365z m3589 -191 l539 -552 -559 -547 -559 -547 -6 366 -6 366 189 183 190
183 -179 190 -178 190 0 362 c0 199 7 361 15 360 8 -2 258 -251 554 -554z
m-2403 -763 c238 -150 292 -192 270 -211 -43 -40 -839 -494 -848 -484 -5 4 9
228 31 496 23 269 41 495 41 504 0 8 47 -15 105 -51 58 -37 238 -151 401 -254z"/>
</g>
</svg>
