<!DOCTYPE svg PUBLIC "-//W3C//DTD SVG 20010904//EN" "http://www.w3.org/TR/2001/REC-SVG-20010904/DTD/svg10.dtd">
<svg version="1.0" xmlns="http://www.w3.org/2000/svg" width="752px" height="753px" viewBox="0 0 7520 7530" preserveAspectRatio="xMidYMid meet">
<g id="layer1" fill="#fefefe" stroke="none">
 <path d="M5635 6100 l6 -465 235 -233 235 -233 -231 -236 -230 -236 6 -461 c4 -254 7 -462 8 -463 1 -1 146 145 321 326 176 181 486 498 690 706 l369 377 -49 46 c-28 25 -165 158 -305 296 -140 138 -358 352 -485 475 -126 124 -308 302 -403 396 l-173 170 6 -465z"/>
 <path d="M1370 6043 c-283 -279 -597 -588 -697 -687 l-183 -181 686 -697 c377 -384 689 -698 694 -698 5 0 9 208 9 463 l2 462 -226 225 c-124 124 -225 229 -225 235 0 5 103 113 229 240 l229 230 5 458 c2 251 2 457 -2 457 -3 0 -238 -228 -521 -507z"/>
 <path d="M2640 6303 c-1 -58 92 -1219 98 -1235 6 -15 88 33 505 296 274 173 499 317 500 320 1 3 -232 141 -518 307 -286 165 -535 310 -552 321 l-33 20 0 -29z"/>
 <path d="M3335 5214 c-275 -174 -501 -317 -502 -318 -1 0 277 -444 618 -986 341 -542 792 -1258 1002 -1592 210 -335 389 -617 398 -629 15 -21 23 -16 513 292 274 173 500 319 503 325 2 7 -249 414 -558 905 -309 492 -764 1213 -1009 1603 -246 391 -451 711 -456 713 -5 1 -234 -140 -509 -313z"/>
 <path d="M5445 1886 c-275 -173 -499 -319 -497 -325 6 -30 386 -622 396 -619 17 4 1006 622 1006 628 0 11 -387 624 -396 626 -5 2 -234 -138 -509 -310z"/>
 </g>
<g id="layer2" fill="#000064" stroke="none">
 <path d="M0 3765 l0 -3765 3760 0 3760 0 0 3765 0 3765 -3760 0 -3760 0 0 -3765z m6205 2234 c127 -123 345 -337 485 -475 140 -138 277 -271 305 -296 l49 -46 -369 -377 c-204 -208 -514 -525 -690 -706 -175 -181 -320 -327 -321 -326 -1 1 -4 209 -8 463 l-6 461 230 236 231 236 -235 233 -235 233 -6 465 -6 465 173 -170 c95 -94 277 -272 403 -396z m-4312 94 l-5 -458 -229 -230 c-126 -127 -229 -235 -229 -240 0 -6 101 -111 225 -235 l226 -225 -2 -462 c0 -255 -4 -463 -9 -463 -5 0 -317 314 -694 698 l-686 697 183 181 c515 510 1213 1194 1218 1194 4 0 4 -206 2 -457z m1332 -102 c286 -166 519 -304 518 -307 -1 -3 -226 -147 -500 -320 -417 -263 -499 -311 -505 -296 -6 16 -99 1177 -98 1235 l0 29 33 -20 c17 -11 266 -156 552 -321z m1075 -1177 c245 -390 700 -1111 1009 -1603 309 -491 560 -898 558 -905 -3 -6 -229 -152 -503 -325 -490 -308 -498 -313 -513 -292 -9 12 -188 294 -398 629 -210 334 -661 1050 -1002 1592 -341 542 -619 986 -618 986 21 20 1005 633 1011 631 5 -2 210 -322 456 -713z m1857 -2929 c106 -171 193 -312 193 -315 0 -6 -989 -624 -1006 -628 -10 -3 -390 589 -396 619 -3 12 991 640 1006 635 5 -1 97 -141 203 -311z"/>
 </g>

</svg>