<!DOCTYPE svg PUBLIC "-//W3C//DTD SVG 20010904//EN" "http://www.w3.org/TR/2001/REC-SVG-20010904/DTD/svg10.dtd">
<svg version="1.0" xmlns="http://www.w3.org/2000/svg" width="750px" height="751px" viewBox="0 0 7500 7510" preserveAspectRatio="xMidYMid meet">
<g id="layer1" fill="#ffffff" stroke="none">
 <path d="M1600 6277 c-157 -155 -474 -467 -704 -694 -242 -239 -416 -418 -413 -425 2 -7 315 -328 693 -712 l689 -700 7 475 7 474 -230 231 -231 231 230 223 230 222 7 162 c3 88 5 303 3 478 l-3 316 -285 -281z"/>
 <path d="M5622 6082 l3 -470 232 -227 233 -227 -225 -231 -225 -232 1 -375 c1 -206 4 -419 8 -473 l6 -98 685 701 c377 386 686 707 688 714 3 12 -1377 1376 -1400 1385 -6 2 -9 -165 -6 -467z"/>
 <path d="M2620 6323 c0 -17 100 -1279 103 -1290 2 -11 1025 625 1027 638 0 4 -84 55 -187 115 -104 59 -280 161 -393 227 -216 126 -530 307 -542 314 -5 2 -8 1 -8 -4z"/>
 <path d="M3323 5211 c-276 -174 -502 -321 -503 -328 0 -10 2010 -3207 2028 -3225 8 -8 1001 614 1016 635 8 12 -152 268 -1759 2816 -143 228 -265 416 -270 417 -6 1 -236 -141 -512 -315z"/>
 <path d="M5431 1886 c-277 -173 -505 -317 -507 -319 -4 -4 378 -623 396 -641 10 -10 1031 624 1027 639 -5 24 -393 635 -402 635 -6 0 -237 -141 -514 -314z"/>
 </g>

</svg>