<!DOCTYPE svg PUBLIC "-//W3C//DTD SVG 20010904//EN" "http://www.w3.org/TR/2001/REC-SVG-20010904/DTD/svg10.dtd">
<svg version="1.0" xmlns="http://www.w3.org/2000/svg" width="752px" height="753px" viewBox="0 0 7520 7530" preserveAspectRatio="xMidYMid meet">
<g id="layer1" fill="#fefeff" stroke="none">
 <path d="M1210 3765 l0 -2255 750 0 750 0 0 2255 0 2255 -750 0 -750 0 0 -2255z m1200 905 l0 -900 -225 0 -225 0 0 900 0 900 225 0 225 0 0 -900z"/>
 <path d="M3540 4860 l0 -110 185 0 185 0 0 -115 0 -115 -450 0 -450 0 0 -1205 0 -1205 1650 0 1650 0 0 1205 0 1205 -450 0 -450 0 0 115 0 115 190 0 190 0 0 110 0 110 -1125 0 -1125 0 0 -110z m2550 -1540 l0 -980 -1425 0 -1425 0 0 980 0 980 1425 0 1425 0 0 -980z"/>
 </g>
<g id="layer2" fill="#000064" stroke="none">
 <path d="M0 3765 l0 -3765 3760 0 3760 0 0 3765 0 3765 -3760 0 -3760 0 0 -3765z m2710 0 l0 -2255 -750 0 -750 0 0 2255 0 2255 750 0 750 0 0 -2255z m3080 1095 l0 -110 -190 0 -190 0 0 -115 0 -115 450 0 450 0 0 -1205 0 -1205 -1650 0 -1650 0 0 1205 0 1205 450 0 450 0 0 115 0 115 -185 0 -185 0 0 110 0 110 1125 0 1125 0 0 -110z"/>
 <path d="M1960 4670 l0 -900 225 0 225 0 0 900 0 900 -225 0 -225 0 0 -900z"/>
 <path d="M3240 3320 l0 -980 1425 0 1425 0 0 980 0 980 -1425 0 -1425 0 0 -980z"/>
 </g>

</svg>