<!DOCTYPE svg PUBLIC "-//W3C//DTD SVG 20010904//EN" "http://www.w3.org/TR/2001/REC-SVG-20010904/DTD/svg10.dtd">
<svg version="1.0" xmlns="http://www.w3.org/2000/svg" width="750px" height="750px" viewBox="0 0 7500 7500" preserveAspectRatio="xMidYMid meet">
<g id="layer1" fill="#ffffff" stroke="none">
 <path d="M1200 3750 l0 -2250 750 0 750 0 0 2250 0 2250 -750 0 -750 0 0 -2250z m1180 960 l0 -950 -215 0 -215 0 0 950 0 950 215 0 215 0 0 -950z"/>
 <path d="M3530 4840 l0 -110 185 0 185 0 0 -115 0 -115 -450 0 -450 0 0 -1205 0 -1205 1650 0 1650 0 0 1205 0 1205 -450 0 -450 0 0 115 0 115 190 0 190 0 0 110 0 110 -1125 0 -1125 0 0 -110z m2530 -1545 l0 -965 -1410 0 -1410 0 0 965 0 965 1410 0 1410 0 0 -965z"/>
 </g>

</svg>