<!DOCTYPE svg PUBLIC "-//W3C//DTD SVG 20010904//EN" "http://www.w3.org/TR/2001/REC-SVG-20010904/DTD/svg10.dtd">
<svg version="1.0" xmlns="http://www.w3.org/2000/svg" width="750px" height="751px" viewBox="0 0 7500 7510" preserveAspectRatio="xMidYMid meet">
<g id="layer1" fill="#ffffff" stroke="none">
 <path d="M2110 4685 l0 -755 750 0 750 0 0 755 0 755 -750 0 -750 0 0 -755z"/>
 <path d="M3890 4685 l0 -755 750 0 750 0 0 755 0 755 -750 0 -750 0 0 -755z"/>
 <path d="M2110 2825 l0 -755 750 0 750 0 0 755 0 755 -750 0 -750 0 0 -755z"/>
 <path d="M3890 2825 l0 -755 750 0 750 0 0 755 0 755 -750 0 -750 0 0 -755z"/>
 </g>

</svg>