<!DOCTYPE svg PUBLIC "-//W3C//DTD SVG 20010904//EN" "http://www.w3.org/TR/2001/REC-SVG-20010904/DTD/svg10.dtd">
<svg version="1.0" xmlns="http://www.w3.org/2000/svg" width="750px" height="751px" viewBox="0 0 7500 7510" preserveAspectRatio="xMidYMid meet">
<g id="layer1" fill="#ffffff" stroke="none">
 <path d="M2410 5691 c0 -5 412 -861 916 -1902 504 -1042 925 -1913 936 -1936 l20 -43 404 0 c317 0 404 3 404 13 0 6 -421 880 -934 1942 l-934 1930 -406 3 c-231 1 -406 -2 -406 -7z"/>
 <path d="M1382 4469 c-387 -381 -702 -697 -700 -704 2 -7 314 -328 693 -714 l690 -701 7 472 7 473 -172 175 c-95 96 -197 201 -227 233 l-55 57 230 230 230 230 3 423 c2 232 2 443 0 470 l-3 47 -703 -691z"/>
 <path d="M5412 4691 l3 -473 233 -229 232 -228 -225 -229 -225 -229 0 -350 c0 -351 8 -596 19 -591 3 2 316 319 695 706 l689 704 -69 67 c-38 38 -285 279 -549 536 -264 258 -553 541 -643 629 l-163 161 3 -474z"/>
 </g>

</svg>