<!DOCTYPE svg PUBLIC "-//W3C//DTD SVG 20010904//EN" "http://www.w3.org/TR/2001/REC-SVG-20010904/DTD/svg10.dtd">
<svg version="1.0" xmlns="http://www.w3.org/2000/svg" width="752px" height="753px" viewBox="0 0 7520 7530" preserveAspectRatio="xMidYMid meet">
<g id="layer1" fill="#fefefe" stroke="none">
 <path d="M2489 5568 c38 -79 139 -289 226 -468 87 -179 181 -374 210 -435 29 -60 221 -459 427 -885 206 -426 415 -858 464 -960 49 -101 177 -367 285 -590 l196 -405 403 -3 c321 -2 401 0 397 10 -3 7 -185 384 -405 838 -533 1102 -958 1983 -1302 2697 l-165 343 -402 0 -402 0 68 -142z"/>
 <path d="M5425 4700 l6 -465 234 -231 234 -230 -40 -45 c-23 -24 -127 -131 -231 -237 l-191 -193 6 -267 c4 -147 7 -357 7 -467 l1 -200 61 65 c83 88 829 852 1102 1128 l221 223 -90 87 c-50 48 -304 296 -565 552 -261 255 -540 528 -618 605 l-144 140 7 -465z"/>
 <path d="M1391 4468 c-380 -375 -691 -687 -689 -693 5 -19 1360 -1395 1369 -1390 4 3 8 211 8 463 l1 457 -207 209 c-115 114 -216 220 -227 233 l-19 25 231 232 230 231 5 458 c3 251 2 457 -2 457 -4 0 -319 -307 -700 -682z"/>
 </g>
<g id="layer2" fill="#000064" stroke="none">
 <path d="M0 3765 l0 -3765 3760 0 3760 0 0 3765 0 3765 -3760 0 -3760 0 0 -3765z m3390 1602 c344 -714 769 -1595 1302 -2697 220 -454 402 -831 405 -838 4 -10 -76 -12 -397 -10 l-403 3 -196 405 c-108 223 -236 489 -285 590 -49 102 -258 534 -464 960 -206 426 -398 825 -427 885 -29 61 -123 256 -210 435 -87 179 -188 389 -226 468 l-68 142 402 0 402 0 165 -343z m2790 -947 c261 -256 515 -504 565 -552 l90 -87 -221 -223 c-273 -276 -1019 -1040 -1102 -1128 l-61 -65 -1 200 c0 110 -3 320 -7 467 l-6 267 191 193 c104 106 208 213 231 237 l40 45 -234 230 -234 231 -6 465 -7 465 144 -140 c78 -77 357 -350 618 -605z m-4087 273 l-5 -458 -230 -231 -231 -232 19 -25 c11 -13 112 -119 227 -233 l207 -209 -1 -457 c0 -252 -4 -460 -8 -463 -9 -5 -1364 1371 -1369 1390 -3 11 1374 1375 1389 1375 4 0 5 -206 2 -457z"/>
 </g>

</svg>