<?xml version="1.0" standalone="no"?>
<!DOCTYPE svg PUBLIC "-//W3C//DTD SVG 20010904//EN"
 "http://www.w3.org/TR/2001/REC-SVG-20010904/DTD/svg10.dtd">
<svg version="1.0" xmlns="http://www.w3.org/2000/svg"
 width="300.000000pt" height="300.000000pt" viewBox="0 0 300.000000 300.000000"
 preserveAspectRatio="xMidYMid meet">
<metadata>
Created by potrace 1.10, written by Peter Selinger 2001-2011
</metadata>
<g transform="translate(0.000000,300.000000) scale(0.050000,-0.050000)"
fill="#000064" stroke="none">
<path d="M2596 5969 c-1623 -221 -2782 -1734 -2567 -3349 276 -2073 2498
-3236 4352 -2278 1584 819 2100 2836 1106 4329 -624 939 -1766 1452 -2891
1298z m1460 -1439 c-3 -16 -339 -718 -746 -1560 l-740 -1530 -315 0 c-173 0
-315 8 -315 17 0 17 1438 2999 1479 3068 30 49 648 54 637 5z m-2396 -795 l0
-364 -185 -186 -184 -185 183 -185 182 -185 8 -365 c4 -201 3 -365 -3 -364 -6
0 -260 246 -565 545 l-554 544 544 555 c299 305 551 554 559 555 8 0 15 -164
15 -365z m3245 -1289 c-305 -300 -562 -545 -571 -545 -9 -1 -10 163 -3 364
l14 365 182 185 182 185 -184 185 -185 186 0 272 c0 149 6 314 13 367 l13 96
547 -558 546 -558 -554 -544z"/>
</g>
</svg>
