<!DOCTYPE svg PUBLIC "-//W3C//DTD SVG 20010904//EN" "http://www.w3.org/TR/2001/REC-SVG-20010904/DTD/svg10.dtd">
<svg version="1.0" xmlns="http://www.w3.org/2000/svg" width="378px" height="377px" viewBox="0 0 3780 3770" preserveAspectRatio="xMidYMid meet">
<g id="layer1" fill="#ffffff" stroke="none">
 <path d="M1805 2823 c-354 -31 -676 -281 -799 -622 -123 -341 -35 -723 225 -980 112 -111 244 -190 394 -238 85 -26 100 -28 270 -28 170 1 185 2 265 29 326 108 564 361 646 686 29 113 27 347 -4 453 -109 382 -423 654 -805 696 -94 11 -112 11 -192 4z m230 -298 c39 -8 106 -32 150 -54 138 -69 227 -158 296 -296 53 -107 72 -204 66 -325 -10 -168 -68 -301 -187 -421 -84 -85 -166 -135 -280 -171 -106 -33 -274 -33 -378 0 -241 76 -406 256 -458 501 -29 138 -9 283 59 421 32 66 59 103 122 166 104 105 199 154 360 188 47 9 185 5 250 -9z"/>
 <path d="M2956 946 c-147 -55 -176 -240 -52 -340 30 -25 48 -31 101 -34 56 -4 70 -1 109 22 102 60 130 190 60 283 -51 68 -143 97 -218 69z"/>
 </g>

</svg>