<!DOCTYPE svg PUBLIC "-//W3C//DTD SVG 20010904//EN" "http://www.w3.org/TR/2001/REC-SVG-20010904/DTD/svg10.dtd">
<svg version="1.0" xmlns="http://www.w3.org/2000/svg" width="750px" height="750px" viewBox="0 0 7500 7500" preserveAspectRatio="xMidYMid meet">
<g id="layer1" fill="#040404" stroke="none">
 <path d="M3772 2361 c-21 -13 -11 -55 14 -59 26 -4 38 22 24 49 -12 21 -18 23 -38 10z"/>
 </g>
<g id="layer2" fill="#fefefe" stroke="none">
 <path d="M1300 5307 l-175 -72 1318 -3 c725 -1 1909 -1 2630 0 l1311 3 -183 73 -182 72 -2272 -1 -2272 -1 -175 -71z"/>
 <path d="M1500 3697 c0 -1086 3 -1416 12 -1425 17 -17 4459 -17 4476 0 9 9 12 339 12 1425 l0 1413 -2250 0 -2250 0 0 -1413z m4350 13 l0 -1310 -2100 0 -2100 0 0 1310 0 1310 2100 0 2100 0 0 -1310z m-2035 -1380 c0 -32 -2 -35 -30 -35 -24 0 -31 5 -33 23 -6 38 5 54 35 50 25 -3 28 -7 28 -38z"/>
 </g>

</svg>