<!DOCTYPE svg PUBLIC "-//W3C//DTD SVG 20010904//EN" "http://www.w3.org/TR/2001/REC-SVG-20010904/DTD/svg10.dtd">
<svg version="1.0" xmlns="http://www.w3.org/2000/svg" width="752px" height="753px" viewBox="0 0 7520 7530" preserveAspectRatio="xMidYMid meet">
<g id="layer1" fill="#fafafc" stroke="none">
 <path d="M2435 5290 c-28 -11 -44 -31 -51 -67 -5 -24 0 -37 23 -64 l30 -34 -113 -420 c-62 -231 -219 -813 -347 -1294 l-234 -875 39 -110 c22 -61 43 -114 47 -118 4 -5 17 31 30 80 12 48 115 431 227 852 113 421 266 992 340 1270 75 278 143 531 151 562 l16 58 1430 2 1430 3 -102 83 -101 82 -1398 -1 c-768 0 -1406 -4 -1417 -9z m225 -40 c11 -11 20 -28 20 -37 0 -23 -30 -53 -53 -53 -26 0 -57 28 -57 52 0 22 34 58 55 58 8 0 24 -9 35 -20z m628 -12 c7 -7 12 -22 12 -35 0 -22 -3 -23 -95 -23 -82 0 -95 2 -95 17 0 37 30 53 100 53 38 0 71 -5 78 -12z m252 -23 l0 -35 -75 0 -75 0 0 35 0 35 75 0 75 0 0 -35z m220 0 l0 -35 -75 0 -75 0 0 35 0 35 75 0 75 0 0 -35z m220 0 l0 -35 -75 0 -75 0 0 35 0 35 75 0 75 0 0 -35z"/>
 <path d="M2616 5222 c-3 -6 -1 -14 5 -17 15 -10 25 3 12 16 -7 7 -13 7 -17 1z"/>
 <path d="M3168 5213 c23 -2 59 -2 80 0 20 2 1 4 -43 4 -44 0 -61 -2 -37 -4z"/>
 <path d="M3400 5220 c0 -6 27 -10 60 -10 33 0 60 4 60 10 0 6 -27 10 -60 10 -33 0 -60 -4 -60 -10z"/>
 <path d="M3620 5220 c0 -6 27 -10 60 -10 33 0 60 4 60 10 0 6 -27 10 -60 10 -33 0 -60 -4 -60 -10z"/>
 <path d="M3850 5220 c0 -6 27 -10 60 -10 33 0 60 4 60 10 0 6 -27 10 -60 10 -33 0 -60 -4 -60 -10z"/>
 </g>
<g id="layer2" fill="#000063" stroke="none">
 <path d="M0 3765 l0 -3765 3760 0 3760 0 0 3765 0 3765 -3760 0 -3760 0 0 -3765z m5351 1453 l102 -83 -1430 -3 -1430 -2 -16 -58 c-8 -31 -76 -284 -151 -562 -74 -278 -227 -849 -340 -1270 -112 -421 -215 -804 -227 -852 -13 -49 -26 -85 -30 -80 -4 4 -25 57 -47 118 l-39 110 234 875 c128 481 285 1063 347 1294 l113 420 -30 34 c-23 27 -28 40 -23 64 7 36 23 56 51 67 11 5 649 9 1417 9 l1398 1 101 -82z"/>
 <path d="M2590 5250 c-11 -11 -20 -28 -20 -38 0 -24 31 -52 57 -52 23 0 53 30 53 53 0 21 -35 57 -55 57 -8 0 -24 -9 -35 -20z m47 -46 c-9 -9 -28 6 -21 18 4 6 10 6 17 -1 6 -6 8 -13 4 -17z"/>
 <path d="M3127 5232 c-10 -10 -17 -26 -17 -35 0 -15 13 -17 95 -17 92 0 95 1 95 23 0 37 -19 47 -90 47 -52 0 -71 -4 -83 -18z m121 -19 c-21 -2 -57 -2 -80 0 -24 2 -7 4 37 4 44 0 63 -2 43 -4z"/>
 <path d="M3390 5215 l0 -35 75 0 75 0 0 35 0 35 -75 0 -75 0 0 -35z m130 5 c0 -6 -27 -10 -60 -10 -33 0 -60 4 -60 10 0 6 27 10 60 10 33 0 60 -4 60 -10z"/>
 <path d="M3610 5215 l0 -35 75 0 75 0 0 35 0 35 -75 0 -75 0 0 -35z m130 5 c0 -6 -27 -10 -60 -10 -33 0 -60 4 -60 10 0 6 27 10 60 10 33 0 60 -4 60 -10z"/>
 <path d="M3830 5215 l0 -35 75 0 75 0 0 35 0 35 -75 0 -75 0 0 -35z m140 5 c0 -6 -27 -10 -60 -10 -33 0 -60 4 -60 10 0 6 27 10 60 10 33 0 60 -4 60 -10z"/>
 </g>

</svg>