<!DOCTYPE svg PUBLIC "-//W3C//DTD SVG 20010904//EN" "http://www.w3.org/TR/2001/REC-SVG-20010904/DTD/svg10.dtd">
<svg version="1.0" xmlns="http://www.w3.org/2000/svg" width="752px" height="753px" viewBox="0 0 7520 7530" preserveAspectRatio="xMidYMid meet">
<g id="layer1" fill="#fbfbfd" stroke="none">
 <path d="M1325 5324 l-180 -73 2620 -1 2620 0 -188 75 -188 75 -2252 -1 -2252 -1 -180 -74z"/>
 <path d="M1510 3795 l0 -1406 25 -24 24 -25 2199 0 2199 0 27 21 26 20 0 1410 0 1409 -2250 0 -2250 0 0 -1405z m4350 -15 l0 -1320 -2100 0 -2100 0 0 1320 0 1320 2100 0 2100 0 0 -1320z m-2070 -1355 c23 -28 -9 -72 -45 -59 -36 14 -24 74 15 74 10 0 23 -7 30 -15z"/>
 </g>
<g id="layer2" fill="#010163" stroke="none">
 <path d="M0 3765 l0 -3765 3760 0 3760 0 0 3765 0 3765 -3760 0 -3760 0 0 -3765z m6197 1560 l188 -75 -2620 0 -2620 1 180 73 180 74 2252 1 2252 1 188 -75z m-187 -1534 l0 -1410 -26 -20 -27 -21 -2199 0 -2199 0 -24 25 -25 24 0 1406 0 1405 2250 0 2250 0 0 -1409z"/>
 <path d="M1660 3780 l0 -1320 2100 0 2100 0 0 1320 0 1320 -2100 0 -2100 0 0 -1320z"/>
 <path d="M3730 2425 c-23 -28 9 -72 45 -59 36 14 24 74 -15 74 -10 0 -23 -7 -30 -15z"/>
 </g>

</svg>