<!DOCTYPE svg PUBLIC "-//W3C//DTD SVG 20010904//EN" "http://www.w3.org/TR/2001/REC-SVG-20010904/DTD/svg10.dtd">
<svg version="1.0" xmlns="http://www.w3.org/2000/svg" width="750px" height="751px" viewBox="0 0 7500 7510" preserveAspectRatio="xMidYMid meet">
<g id="layer1" fill="#010101" stroke="none">
 <path d="M2510 4956 c-6 -8 -10 -25 -8 -38 2 -19 10 -24 40 -26 29 -2 39 1 48 18 23 42 -49 83 -80 46z m48 -33 c-4 -22 -22 -20 -26 1 -2 10 3 16 13 16 10 0 15 -7 13 -17z"/>
 <path d="M3047 4942 c-10 -10 -17 -26 -17 -35 0 -15 13 -17 95 -17 86 0 95 2 95 18 0 35 -32 52 -97 52 -45 0 -64 -4 -76 -18z m153 -17 c0 -12 -15 -15 -75 -15 -60 0 -75 3 -75 15 0 12 15 15 75 15 60 0 75 -3 75 -15z"/>
 <path d="M3300 4925 l0 -35 75 0 75 0 0 35 0 35 -75 0 -75 0 0 -35z m140 5 c0 -6 -27 -10 -60 -10 -33 0 -60 4 -60 10 0 6 27 10 60 10 33 0 60 -4 60 -10z"/>
 <path d="M3520 4925 l0 -35 75 0 75 0 0 35 0 35 -75 0 -75 0 0 -35z m140 5 c0 -6 -27 -10 -60 -10 -33 0 -60 4 -60 10 0 6 27 10 60 10 33 0 60 -4 60 -10z"/>
 <path d="M3750 4925 l0 -35 75 0 75 0 0 35 0 35 -75 0 -75 0 0 -35z m140 5 c0 -6 -27 -10 -60 -10 -33 0 -60 4 -60 10 0 6 27 10 60 10 33 0 60 -4 60 -10z"/>
 </g>
<g id="layer2" fill="#fafafa" stroke="none">
 <path d="M2322 4987 c-23 -25 -31 -94 -12 -113 6 -6 -58 -387 -179 -1072 -182 -1021 -189 -1065 -174 -1100 34 -85 96 -203 103 -195 4 4 15 49 23 98 9 50 100 560 202 1135 102 575 188 1057 191 1073 l6 27 1449 0 c797 0 1449 4 1449 8 0 4 -47 43 -105 85 l-105 77 -1413 0 -1414 0 -21 -23z m262 -32 c17 -13 18 -18 8 -40 -10 -22 -18 -26 -50 -23 -30 2 -38 7 -40 26 -7 46 41 68 82 37z m618 -12 c10 -9 18 -24 18 -35 0 -16 -9 -18 -95 -18 -82 0 -95 2 -95 17 0 9 7 25 17 35 22 24 128 26 155 1z m248 -18 l0 -35 -75 0 -75 0 0 35 0 35 75 0 75 0 0 -35z m220 0 l0 -35 -75 0 -75 0 0 35 0 35 75 0 75 0 0 -35z m230 0 l0 -35 -75 0 -75 0 0 35 0 35 75 0 75 0 0 -35z"/>
 <path d="M2532 4926 c1 -10 8 -17 13 -17 15 1 12 24 -3 29 -9 3 -13 -2 -10 -12z"/>
 <path d="M3050 4925 c0 -12 15 -15 75 -15 60 0 75 3 75 15 0 12 -15 15 -75 15 -60 0 -75 -3 -75 -15z"/>
 <path d="M3320 4930 c0 -6 27 -10 60 -10 33 0 60 4 60 10 0 6 -27 10 -60 10 -33 0 -60 -4 -60 -10z"/>
 <path d="M3540 4930 c0 -6 27 -10 60 -10 33 0 60 4 60 10 0 6 -27 10 -60 10 -33 0 -60 -4 -60 -10z"/>
 <path d="M3770 4930 c0 -6 27 -10 60 -10 33 0 60 4 60 10 0 6 -27 10 -60 10 -33 0 -60 -4 -60 -10z"/>
 </g>

</svg>