<!DOCTYPE svg PUBLIC "-//W3C//DTD SVG 20010904//EN" "http://www.w3.org/TR/2001/REC-SVG-20010904/DTD/svg10.dtd">
<svg version="1.0" xmlns="http://www.w3.org/2000/svg" width="752px" height="753px" viewBox="0 0 7520 7530" preserveAspectRatio="xMidYMid meet">
<g id="layer1" fill="#000064" stroke="none">
 <path d="M0 3765 l0 -3765 3760 0 3760 0 0 3765 0 3765 -3760 0 -3760 0 0 -3765z m4388 1248 l-193 -193 809 -809 809 -809 -1023 -1032 -1024 -1031 -1031 1031 -1030 1030 810 810 810 810 -192 192 -192 193 407 413 406 413 413 -413 413 -413 -192 -192z"/>
 <path d="M3070 5303 l-85 -88 88 85 c48 46 87 86 87 87 0 8 -11 -3 -90 -84z"/>
 <path d="M4150 4813 l-395 -398 398 395 c218 217 397 396 397 397 0 7 -33 -25 -400 -394z"/>
 <path d="M3015 4478 l-320 -323 323 320 c177 176 322 321 322 322 0 8 -28 -20 -325 -319z"/>
 <path d="M4705 4270 c236 -236 432 -430 435 -430 3 0 -189 194 -425 430 -236 237 -432 430 -435 430 -3 0 189 -193 425 -430z"/>
 <path d="M3207 3762 c-301 -301 -547 -553 -547 -561 0 -18 1091 -1113 1105 -1109 6 2 258 252 560 556 l549 553 -555 555 c-304 304 -556 554 -559 554 -3 0 -251 -246 -553 -548z"/>
 <path d="M2900 3495 c-157 -157 -283 -285 -280 -285 3 0 133 128 290 285 157 157 283 285 280 285 -3 0 -133 -128 -290 -285z"/>
 <path d="M4610 3495 c157 -157 287 -285 290 -285 3 0 -123 128 -280 285 -157 157 -287 285 -290 285 -3 0 123 -128 280 -285z"/>
 <path d="M2690 3115 c47 -47 87 -85 90 -85 2 0 -33 38 -80 85 -47 47 -87 85 -90 85 -2 0 33 -38 80 -85z"/>
 <path d="M4820 3113 l-85 -88 88 85 c48 46 87 86 87 87 0 8 -11 -3 -90 -84z"/>
 <path d="M5105 2528 l-430 -433 433 430 c237 236 432 431 432 432 0 7 -35 -28 -435 -429z"/>
 <path d="M2830 2105 c179 -179 327 -325 330 -325 3 0 -141 146 -320 325 -179 179 -327 325 -330 325 -3 0 141 -146 320 -325z"/>
 </g>
<g id="layer2" fill="#070707" stroke="none">
 <path d="M3365 5598 l-386 -392 390 -390 391 -391 392 392 393 393 -390 390 c-214 214 -393 390 -396 390 -4 0 -181 -176 -394 -392z"/>
 <path d="M2546 4001 l-799 -799 1004 -1011 c552 -556 1007 -1011 1010 -1011 9 0 2004 2012 2004 2021 0 4 -357 366 -794 804 l-795 796 -208 -208 -208 -208 -208 208 -207 207 -799 -799z m1794 -226 l575 -575 -578 -578 -577 -577 -577 577 -578 578 575 575 c316 316 577 575 580 575 3 0 264 -259 580 -575z"/>
 </g>
<g id="layer3" fill="#bdbdcf" stroke="none">
 <path d="M3348 5618 l-407 -413 192 -193 192 -192 -810 -810 -810 -810 1030 -1030 1031 -1031 1024 1031 1023 1032 -809 809 -809 809 193 193 192 192 -413 413 -413 413 -406 -413z m810 -21 l392 -392 -393 -393 -392 -392 -395 395 -395 395 390 390 c214 214 392 390 395 390 3 0 182 -177 398 -393z m-606 -1004 l208 -208 211 210 211 210 794 -800 c436 -440 794 -804 794 -808 0 -4 -452 -461 -1004 -1015 l-1005 -1007 -246 245 c-136 135 -589 590 -1007 1012 l-760 768 793 800 c436 440 795 800 798 800 3 0 99 -93 213 -207z"/>
 <path d="M3180 3770 l-562 -570 160 -167 c88 -93 346 -352 571 -578 l411 -410 463 463 c254 255 511 515 570 578 l109 114 -562 570 c-317 321 -570 570 -580 570 -10 0 -263 -249 -580 -570z m1139 -14 l555 -555 -549 -553 c-302 -304 -554 -554 -560 -556 -14 -4 -1105 1091 -1105 1109 0 13 1088 1109 1100 1109 3 0 255 -250 559 -554z"/>
 </g>

</svg>