<!DOCTYPE svg PUBLIC "-//W3C//DTD SVG 20010904//EN" "http://www.w3.org/TR/2001/REC-SVG-20010904/DTD/svg10.dtd">
<svg version="1.0" xmlns="http://www.w3.org/2000/svg" width="538px" height="639px" viewBox="0 0 5380 6390" preserveAspectRatio="xMidYMid meet">
<g id="layer1" fill="#dadada" stroke="none">
 <path d="M2157 5842 c-290 -290 -527 -532 -527 -537 0 -5 111 -121 247 -257 l248 -248 -1055 -1055 -1055 -1055 1338 -1338 1337 -1337 1337 1337 1338 1338 -1055 1055 -1055 1055 248 248 c136 136 247 252 247 257 0 10 -1050 1065 -1060 1065 -3 0 -242 -237 -533 -528z m1045 -1047 l-507 -510 -513 510 -512 510 510 510 510 510 510 -510 510 -510 -508 -510z m-239 -287 l272 272 1045 -1045 1045 -1045 -1318 -1318 -1317 -1317 -1317 1317 -1318 1318 1045 1045 1045 1045 272 -272 273 -273 273 273z"/>
 <path d="M1940 3435 l-745 -745 748 -748 747 -747 747 747 748 748 -745 745 c-410 410 -747 745 -750 745 -3 0 -340 -335 -750 -745z m1480 -1470 l-725 -725 -725 725 -725 725 725 725 725 725 725 -725 725 -725 -725 -725z"/>
 </g>
<g id="layer2" fill="#141414" stroke="none">
 <path d="M2180 5815 l-510 -510 512 -510 513 -510 507 510 508 510 -510 510 -510 510 -510 -510z"/>
 <path d="M1100 3735 l-1045 -1045 1318 -1318 1317 -1317 1317 1317 1318 1318 -1045 1045 -1045 1045 -272 -272 -273 -273 -273 273 -272 272 -1045 -1045z m2340 -300 l745 -745 -748 -748 -747 -747 -747 747 -748 748 745 745 c410 410 747 745 750 745 3 0 340 -335 750 -745z"/>
 </g>

</svg>