<!DOCTYPE svg PUBLIC "-//W3C//DTD SVG 20010904//EN" "http://www.w3.org/TR/2001/REC-SVG-20010904/DTD/svg10.dtd">
<svg version="1.0" xmlns="http://www.w3.org/2000/svg" width="750px" height="750px" viewBox="0 0 7500 7500" preserveAspectRatio="xMidYMid meet">
<g id="layer1" fill="#f7f7f7" stroke="none">
 <path d="M3335 5600 l-410 -410 193 -193 192 -192 -805 -805 c-443 -443 -805 -809 -805 -815 0 -6 461 -471 1025 -1035 l1025 -1025 1025 1025 c564 564 1025 1029 1025 1035 0 6 -362 372 -805 815 l-805 805 192 192 193 193 -410 410 c-225 226 -412 410 -415 410 -3 0 -190 -184 -415 -410z m815 -15 l395 -395 -398 -398 -397 -397 -397 397 -398 398 395 395 c217 217 397 395 400 395 3 0 183 -178 400 -395z m-608 -1002 l208 -208 208 208 c114 114 212 207 217 207 15 0 1590 -1591 1590 -1605 0 -16 -1994 -2025 -2009 -2025 -10 0 -815 804 -1731 1728 l-300 302 800 800 c440 440 802 800 805 800 3 0 98 -93 212 -207z"/>
 <path d="M3182 3753 l-560 -567 458 -466 c252 -256 507 -512 565 -570 l107 -105 563 570 564 570 -232 235 c-568 575 -892 900 -899 900 -3 0 -258 -255 -566 -567z m1115 -15 c299 -299 543 -547 543 -553 0 -6 -245 -255 -545 -555 l-545 -545 -545 545 c-300 300 -545 549 -545 555 0 10 1080 1095 1090 1095 2 0 249 -244 547 -542z"/>
 </g>
<g id="layer2" fill="#1a1a1a" stroke="none">
 <path d="M3360 5575 l-385 -385 388 -388 387 -387 387 387 388 388 -385 385 c-212 212 -387 385 -390 385 -3 0 -178 -173 -390 -385z"/>
 <path d="M2534 3981 l-792 -796 1005 -1009 1004 -1010 1000 1007 c550 553 1000 1009 1000 1012 0 4 -356 364 -791 802 l-792 796 -209 -209 -209 -209 -208 208 c-114 114 -209 206 -212 206 -3 -1 -361 -360 -796 -798z m1793 -213 c315 -315 573 -577 573 -583 0 -6 -259 -269 -575 -585 l-575 -575 -575 575 c-316 316 -575 579 -575 585 0 10 1140 1155 1150 1155 3 0 263 -258 577 -572z"/>
 </g>

</svg>