<!DOCTYPE svg PUBLIC "-//W3C//DTD SVG 20010904//EN" "http://www.w3.org/TR/2001/REC-SVG-20010904/DTD/svg10.dtd">
<svg version="1.0" xmlns="http://www.w3.org/2000/svg" width="172px" height="228px" viewBox="0 0 1720 2280" preserveAspectRatio="xMidYMid meet">
<g id="layer1" fill="#f0d0c1" stroke="none">
 <path d="M753 2160 c-10 -11 -30 -20 -45 -20 -26 0 -58 -22 -58 -41 0 -15 57 -10 70 6 17 20 33 19 55 -5 10 -11 24 -20 31 -20 14 0 34 30 34 49 0 16 -38 51 -55 51 -8 0 -23 -9 -32 -20z"/>
 <path d="M544 2135 c-8 -20 4 -35 27 -35 23 0 26 35 3 44 -22 8 -24 8 -30 -9z"/>
 <path d="M877 2124 c-9 -10 2 -24 19 -24 8 0 14 7 14 15 0 15 -21 21 -33 9z"/>
 <path d="M648 1043 c7 -3 16 -2 19 1 4 3 -2 6 -13 5 -11 0 -14 -3 -6 -6z"/>
 <path d="M1040 999 c-41 -17 -60 -40 -60 -74 0 -18 -7 -38 -16 -45 -11 -10 -14 -23 -8 -54 8 -54 20 -66 59 -66 48 0 75 27 82 80 3 25 14 62 24 82 26 51 24 64 -12 77 -37 13 -36 13 -69 0z"/>
 <path d="M790 959 c0 -5 5 -7 10 -4 6 3 10 8 10 11 0 2 -4 4 -10 4 -5 0 -10 -5 -10 -11z"/>
 <path d="M901 934 c0 -11 3 -14 6 -6 3 7 2 16 -1 19 -3 4 -6 -2 -5 -13z"/>
 <path d="M730 466 c-14 -14 -12 -32 5 -46 28 -23 15 -30 -40 -24 -51 6 -55 5 -55 -13 0 -27 22 -44 68 -54 20 -4 48 -11 62 -14 30 -7 90 27 90 50 0 9 -13 24 -30 33 -34 19 -34 39 0 34 34 -5 70 7 70 23 0 18 3 17 -87 20 -40 1 -77 -3 -83 -9z"/>
 </g>
<g id="layer2" fill="#c99685" stroke="none">
 <path d="M685 2151 c-43 -21 -68 -28 -92 -24 -31 5 -33 4 -33 -25 0 -24 -8 -37 -35 -58 -19 -14 -56 -54 -81 -88 -53 -70 -134 -229 -134 -262 0 -14 12 -31 32 -45 18 -12 51 -39 73 -60 22 -20 49 -39 60 -41 11 -2 21 -12 23 -25 5 -35 29 -49 63 -36 l29 11 -16 -30 c-10 -20 -14 -42 -10 -63 4 -19 -1 -65 -10 -107 -17 -71 -25 -171 -17 -195 6 -15 79 -31 175 -37 82 -5 97 2 128 63 l12 24 21 -33 c14 -22 17 -35 10 -37 -6 -2 -32 -18 -57 -34 -40 -27 -51 -30 -91 -24 -35 6 -45 4 -45 -7 0 -7 -19 -22 -42 -33 -38 -18 -43 -24 -46 -58 -4 -44 13 -68 58 -87 20 -8 38 -31 60 -76 35 -69 46 -76 123 -76 42 1 55 -4 74 -25 19 -19 30 -24 51 -19 15 3 52 9 82 12 30 4 60 13 67 21 15 19 36 6 30 -18 -3 -11 0 -19 6 -19 16 0 77 38 77 47 0 5 12 21 26 36 l26 28 22 -20 c30 -28 53 -12 62 45 7 48 -16 145 -42 175 -8 8 -17 29 -20 47 -3 17 -15 39 -25 48 -33 29 -24 42 29 41 47 -2 47 -2 50 32 3 24 -8 57 -33 109 -21 41 -44 101 -51 134 -19 80 -36 110 -105 184 -70 75 -73 96 -24 147 38 39 44 64 18 74 -11 4 -25 -4 -45 -28 -36 -43 -48 -29 -41 51 8 81 -20 186 -67 258 -47 72 -62 85 -128 111 -73 29 -126 27 -197 -8z m-228 -453 c-3 -8 -6 -5 -6 6 -1 11 2 17 5 13 3 -3 4 -12 1 -19z m283 -73 c0 -2 -11 -21 -25 -41 -14 -20 -25 -43 -25 -50 0 -9 -11 -14 -29 -14 -16 0 -38 -3 -48 -6 -10 -3 10 21 44 55 53 53 83 73 83 56z m311 -718 c-8 -8 -11 -7 -11 4 0 20 13 34 18 19 3 -7 -1 -17 -7 -23z"/>
 <path d="M1224 1878 c-36 -24 -50 -40 -52 -60 -5 -39 26 -37 83 5 45 32 62 58 50 77 -10 17 -31 11 -81 -22z"/>
 <path d="M67 1749 c-10 -6 -25 -8 -33 -5 -12 5 -15 -1 -12 -22 2 -21 9 -28 32 -30 44 -5 88 17 84 42 -3 24 -42 32 -71 15z"/>
 <path d="M252 1578 c-20 -20 -14 -45 19 -72 35 -30 77 -34 86 -9 4 11 -7 28 -35 55 -45 41 -52 44 -70 26z"/>
 <path d="M411 1255 c-35 -41 -40 -83 -13 -108 31 -29 51 -21 72 29 23 52 25 85 8 102 -19 19 -34 14 -67 -23z"/>
 <path d="M506 861 c-3 -5 1 -14 8 -20 16 -13 32 2 21 19 -8 12 -22 13 -29 1z"/>
 <path d="M1009 583 c-9 -2 -21 -14 -27 -27 -6 -13 -25 -31 -42 -39 -31 -16 -78 -13 -203 15 -72 15 -137 -9 -137 -52 0 -11 -11 -20 -30 -23 -43 -9 -39 -38 11 -78 27 -21 59 -36 88 -40 25 -4 64 -13 86 -19 81 -24 124 -24 150 0 14 14 32 21 43 18 23 -6 52 8 52 26 0 7 -9 21 -20 31 -11 10 -20 22 -20 27 0 17 34 7 56 -17 25 -27 62 -33 82 -13 21 21 14 56 -15 75 -16 9 -30 18 -32 20 -2 1 2 16 9 33 11 26 10 33 -5 50 -10 11 -21 19 -24 19 -3 -1 -13 -3 -22 -6z"/>
 <path d="M1166 510 c-40 -42 -43 -70 -7 -70 21 0 84 77 78 95 -8 22 -34 13 -71 -25z"/>
 </g>
<g id="layer3" fill="#6c686e" stroke="none">
 <path d="M1616 2216 c-36 -85 -109 -150 -254 -226 -39 -21 -70 -45 -83 -66 -11 -19 -47 -55 -80 -81 -33 -25 -62 -57 -65 -70 -4 -12 -21 -42 -40 -65 -56 -71 -45 -125 41 -208 53 -52 80 -97 88 -156 4 -22 22 -75 42 -117 40 -86 40 -87 20 -87 -8 0 -19 -9 -25 -20 -7 -14 -21 -20 -44 -20 -37 0 -62 -21 -52 -45 8 -21 99 -21 116 0 18 22 40 18 40 -7 0 -13 3 -33 6 -45 6 -20 3 -23 -24 -23 -39 0 -48 -24 -22 -57 25 -33 26 -75 1 -90 -11 -7 -36 -37 -56 -68 -20 -30 -41 -55 -46 -55 -6 0 -23 7 -40 15 -16 9 -34 13 -39 10 -5 -3 -35 -10 -65 -15 -43 -7 -63 -6 -92 6 -26 11 -52 14 -94 9 l-58 -7 -25 41 c-31 48 -46 52 -46 13 0 -37 24 -69 58 -76 15 -4 41 -17 57 -30 26 -21 29 -27 20 -52 -7 -20 -25 -36 -60 -53 -42 -20 -58 -22 -105 -16 -30 4 -68 8 -85 10 -16 1 -38 3 -47 3 -9 1 -30 13 -46 27 -18 15 -42 25 -61 25 -27 0 -34 6 -57 53 -26 49 -27 61 -30 215 -2 136 0 165 13 175 65 52 97 99 95 142 -1 18 5 39 13 45 13 11 15 0 15 -83 0 -112 8 -126 64 -107 40 13 56 7 56 -18 0 -10 9 -25 20 -35 11 -9 20 -23 20 -31 0 -20 35 -29 60 -16 24 13 24 11 3 55 -14 30 -15 39 -5 56 19 30 0 47 -55 51 -36 2 -50 9 -65 29 -19 25 -19 27 2 107 11 45 21 108 23 140 2 56 2 57 31 55 42 -3 65 13 86 60 26 61 77 127 98 127 10 0 27 7 38 15 19 15 19 15 -5 35 -48 41 -172 -2 -252 -88 l-53 -57 -6 40 c-3 22 -12 51 -20 65 -7 14 -21 50 -30 80 -20 67 -46 77 -91 34 -34 -33 -37 -62 -9 -97 12 -15 27 -49 34 -77 12 -46 12 -52 -5 -60 -28 -16 -71 -12 -106 10 -25 15 -33 27 -33 49 0 36 -13 46 -39 31 -18 -9 -24 -4 -54 42 -45 71 -58 80 -120 82 -28 1 -60 6 -69 10 -17 8 -18 -37 -18 -873 l0 -881 860 0 860 0 0 1140 0 1140 -24 0 c-13 0 -27 -6 -29 -12 -4 -10 -6 -10 -6 0 -2 28 -20 8 -45 -52z m-328 -1536 c2 -26 -4 -59 -13 -81 -16 -34 -21 -37 -72 -44 -62 -8 -68 -5 -60 27 7 28 118 148 132 144 6 -1 11 -22 13 -46z m-208 -48 c0 -8 -90 -56 -127 -66 -11 -4 -24 -13 -27 -21 -9 -25 -28 -16 -24 12 4 32 44 64 95 73 53 11 83 11 83 2z m-279 -162 c28 0 39 -4 39 -15 0 -9 -6 -18 -14 -21 -23 -9 -28 -35 -10 -55 16 -18 15 -19 -22 -19 -31 0 -47 8 -82 39 -23 21 -42 43 -42 49 0 18 34 32 64 27 16 -3 46 -5 67 -5z m189 -40 c0 -5 -2 -10 -4 -10 -3 0 -8 5 -11 10 -3 6 -1 10 4 10 6 0 11 -4 11 -10z"/>
 <path d="M872 2251 c15 -3 42 -24 61 -46 32 -38 33 -42 21 -70 -20 -46 -17 -73 11 -91 31 -20 41 -13 56 36 9 31 9 43 0 54 -8 9 -10 28 -5 50 5 31 3 36 -12 37 -18 0 -18 1 1 8 19 8 19 8 -1 19 -11 6 -51 10 -89 10 -40 -1 -58 -4 -43 -7z"/>
 <path d="M822 2188 c-18 -18 -15 -28 8 -28 13 0 20 7 20 20 0 23 -10 26 -28 8z"/>
 <path d="M562 2133 c2 -10 12 -18 23 -18 11 0 21 8 23 18 3 13 -3 17 -23 17 -20 0 -26 -4 -23 -17z"/>
 <path d="M1035 1779 c-8 -23 7 -45 24 -35 6 4 11 18 11 32 0 30 -26 32 -35 3z"/>
 <path d="M340 1761 c-7 -14 -7 -22 1 -27 14 -8 43 21 35 35 -11 17 -24 13 -36 -8z"/>
 <path d="M863 1310 c-4 -15 -14 -20 -39 -20 -28 0 -33 -4 -36 -27 -2 -23 -8 -29 -35 -31 -47 -5 -44 -32 2 -32 46 0 52 -18 25 -75 -21 -44 -19 -71 5 -61 7 2 25 -2 40 -10 33 -17 64 -4 66 29 1 24 2 22 -10 129 -6 60 -5 75 7 84 8 6 12 16 8 22 -11 18 -27 14 -33 -8z"/>
 <path d="M1093 1253 c-18 -7 -16 -30 2 -37 20 -7 45 3 45 19 0 10 -25 28 -33 24 -1 0 -8 -3 -14 -6z"/>
 <path d="M957 1099 c-42 -22 -44 -42 -6 -47 13 -2 31 -13 40 -24 17 -22 79 -48 116 -48 22 0 53 24 53 41 0 5 -11 14 -24 21 -16 6 -26 21 -28 37 -2 19 -9 27 -28 28 -14 2 -38 5 -55 8 -19 3 -44 -2 -68 -16z"/>
 <path d="M574 985 c-12 -8 -24 -28 -27 -44 -4 -20 -17 -35 -36 -46 -44 -22 -56 -50 -36 -81 8 -13 23 -24 33 -24 10 0 23 -5 29 -11 16 -16 42 -4 53 25 11 29 55 41 95 26 22 -8 30 -8 37 2 21 33 3 63 -42 70 -21 2 -26 9 -28 39 -2 27 -9 39 -28 48 -30 14 -25 14 -50 -4z"/>
 </g>
<g id="layer4" fill="#a34f49" stroke="none">
 <path d="M7 1954 c-4 -4 -7 -29 -7 -56 0 -55 16 -57 26 -3 6 33 -6 72 -19 59z"/>
 <path d="M1217 1912 c-27 -28 -36 -75 -17 -87 13 -8 90 34 104 58 15 23 -3 51 -35 55 -16 2 -34 -7 -52 -26z"/>
 <path d="M185 1810 c-12 -4 -27 -15 -34 -24 -7 -9 -28 -16 -45 -16 -17 0 -39 -7 -49 -14 -20 -15 -24 -61 -4 -53 7 2 37 10 68 16 59 12 112 52 107 79 -4 19 -17 23 -43 12z"/>
 <path d="M1087 1711 c-32 -34 -34 -51 -8 -51 21 0 64 47 58 64 -7 20 -22 16 -50 -13z"/>
 <path d="M242 1608 c-27 -27 -10 -59 36 -71 18 -4 22 -1 22 20 0 51 -31 78 -58 51z"/>
 <path d="M760 1446 c0 -34 37 -56 93 -56 57 0 101 20 76 35 -7 5 -31 12 -54 16 -22 4 -57 10 -77 14 -31 6 -38 5 -38 -9z"/>
 <path d="M880 1325 c0 -21 30 -31 40 -14 11 17 3 29 -21 29 -10 0 -19 -7 -19 -15z"/>
 <path d="M1300 1130 c0 -5 5 -10 10 -10 6 0 10 5 10 10 0 6 -4 10 -10 10 -5 0 -10 -4 -10 -10z"/>
 <path d="M1105 741 c-10 -17 4 -31 31 -31 19 0 25 5 22 18 -4 19 -43 29 -53 13z"/>
 </g>
<g id="layer5" fill="#502521" stroke="none">
 <path d="M0 1990 l0 -290 25 0 c14 0 35 6 46 13 18 11 24 8 51 -23 16 -19 40 -56 54 -82 24 -47 56 -74 73 -63 5 3 30 -13 56 -35 40 -35 52 -40 95 -40 27 0 51 -4 54 -9 3 -5 2 -56 -3 -115 l-8 -106 -48 -42 c-67 -59 -77 -89 -81 -243 -5 -242 17 -316 129 -433 70 -72 130 -111 172 -112 12 0 38 -9 60 -20 43 -22 65 -25 65 -10 0 14 -41 72 -57 83 -7 4 -13 15 -13 22 0 19 38 19 83 0 20 -8 56 -15 79 -16 24 -1 54 -4 68 -8 24 -7 24 -8 -13 -20 -68 -23 -57 -71 15 -71 21 0 52 -7 69 -15 23 -13 34 -13 52 -4 30 16 37 30 30 57 -5 21 -3 22 33 16 34 -5 42 -2 68 24 23 25 34 29 61 25 28 -4 36 0 64 33 49 60 73 136 65 203 -3 31 -12 63 -19 71 -7 8 -15 24 -17 35 -6 33 -25 23 -68 -37 -39 -56 -62 -70 -75 -48 -11 17 -41 11 -64 -14 -15 -15 -38 -25 -69 -29 -26 -3 -61 -9 -79 -13 -28 -5 -32 -3 -35 17 -2 20 -11 25 -48 30 -76 12 -97 24 -110 66 -17 52 -46 81 -94 95 -48 14 -66 25 -66 44 0 9 12 14 33 14 63 1 158 28 198 56 62 45 81 54 119 54 40 0 54 -7 63 -33 11 -28 36 -31 81 -8 24 11 63 24 88 27 44 6 45 6 63 -32 10 -22 26 -51 37 -66 10 -15 25 -44 32 -64 27 -80 76 -67 76 20 -1 141 -29 225 -81 241 -10 3 -23 22 -29 41 -20 59 -57 74 -181 74 -97 0 -107 -2 -127 -23 -12 -13 -27 -37 -33 -55 -6 -18 -15 -32 -20 -32 -5 0 -18 20 -30 44 -25 54 -43 71 -66 61 -10 -4 -51 -9 -91 -12 -41 -2 -92 -11 -114 -19 -60 -21 -61 -20 -53 42 4 37 3 60 -5 69 -17 21 -5 59 40 124 65 96 171 179 254 200 74 18 58 51 -25 51 -54 0 -138 -44 -227 -119 -45 -38 -74 -57 -76 -49 -3 7 -7 42 -10 78 -8 86 -24 140 -43 147 -28 11 -48 -12 -53 -62 l-5 -49 -30 26 -30 26 45 94 c38 79 59 107 136 184 71 71 108 100 169 130 l77 38 51 -18 c89 -31 117 -54 148 -120 37 -80 62 -198 54 -259 -11 -92 36 -116 98 -48 19 21 53 70 77 109 24 42 51 74 63 78 30 8 167 88 254 146 87 59 129 119 135 196 l5 52 -833 0 -834 0 0 -290z m412 -396 c8 -18 8 -28 1 -35 -8 -8 -18 0 -36 27 -14 22 -23 42 -20 47 7 12 43 -13 55 -39z m778 -407 c14 -7 26 -20 28 -28 3 -17 -40 -29 -129 -34 -25 -1 -55 -5 -66 -9 -45 -14 -40 44 5 69 33 18 128 19 162 2z m-378 -24 c10 -9 18 -20 18 -24 0 -10 -56 -22 -100 -22 -104 1 -112 3 -108 21 7 38 154 58 190 25z m-362 -167 c0 -7 -14 -27 -31 -45 -30 -32 -30 -33 -24 -109 6 -72 -4 -117 -21 -100 -12 13 -9 222 4 246 14 25 72 32 72 8z m170 -372 c0 -9 -7 -14 -17 -12 -25 5 -28 28 -4 28 12 0 21 -6 21 -16z"/>
 <path d="M733 1438 c-29 -14 -37 -38 -19 -56 12 -12 24 -13 57 -6 45 10 71 36 53 54 -15 15 -67 20 -91 8z"/>
 <path d="M814 1325 c-12 -29 4 -46 38 -43 57 5 48 57 -10 58 -12 0 -25 -7 -28 -15z"/>
 </g>
<g id="layer6" fill="#190e09" stroke="none">
 <path d="M545 2260 c-33 -22 -51 -58 -36 -73 17 -17 87 10 106 40 13 19 14 28 6 31 -6 2 -9 8 -5 13 10 16 -40 8 -71 -11z"/>
 <path d="M980 2240 c0 -5 11 -10 25 -10 14 0 25 5 25 10 0 6 -11 10 -25 10 -14 0 -25 -4 -25 -10z"/>
 <path d="M1000 2216 c0 -2 7 -9 15 -16 12 -10 15 -10 15 4 0 9 -7 16 -15 16 -8 0 -15 -2 -15 -4z"/>
 <path d="M1060 2121 c0 -30 11 -51 26 -51 18 0 18 29 0 53 -17 22 -26 22 -26 -2z"/>
 <path d="M1076 1977 c-14 -10 -20 -35 -27 -108 -5 -52 -10 -105 -11 -118 -4 -36 26 -51 51 -26 25 25 51 123 51 190 0 69 -24 92 -64 62z"/>
 <path d="M30 1864 c0 -12 -7 -27 -15 -34 -10 -8 -15 -29 -14 -59 1 -38 2 -42 9 -21 6 18 8 20 9 7 1 -16 3 -17 16 -3 8 8 15 19 15 25 0 6 6 10 13 9 7 -2 12 8 12 25 0 15 -4 26 -8 25 -5 -2 -15 8 -22 22 -13 23 -14 24 -15 4z"/>
 <path d="M223 1773 c-18 -7 -16 -50 1 -56 20 -8 39 18 31 43 -6 20 -11 22 -32 13z"/>
 <path d="M302 1678 c-19 -19 -14 -57 16 -105 41 -69 66 -93 91 -86 27 7 61 50 61 77 0 31 -34 77 -77 103 -42 25 -73 29 -91 11z"/>
 <path d="M790 1206 c0 -11 9 -16 26 -16 31 0 28 23 -4 28 -15 2 -22 -2 -22 -12z"/>
 <path d="M848 1133 c-3 -42 -6 -49 -31 -57 -20 -7 -33 -7 -45 2 -31 22 -44 25 -61 15 -26 -16 -25 -50 2 -67 22 -15 32 -14 122 4 68 15 114 19 150 15 46 -6 55 -4 81 18 24 21 27 28 16 39 -10 10 -16 10 -33 0 -27 -17 -53 -8 -68 24 -9 21 -16 25 -39 19 -21 -4 -33 0 -47 15 -30 33 -44 25 -47 -27z"/>
 <path d="M1245 1124 c-24 -24 -16 -68 13 -72 46 -7 69 40 36 72 -20 20 -29 20 -49 0z"/>
 <path d="M552 1093 c-48 -40 -17 -107 38 -80 33 17 36 39 8 72 -23 26 -24 27 -46 8z"/>
 <path d="M363 1055 c-31 -22 -46 -84 -45 -195 0 -111 13 -167 47 -204 24 -26 77 -36 90 -16 3 5 38 -15 77 -45 39 -30 77 -55 85 -55 7 0 22 9 33 20 12 12 32 25 45 30 16 6 25 17 25 32 0 12 10 32 21 45 32 33 13 52 -46 45 -32 -3 -59 1 -95 17 -28 12 -65 21 -83 19 -46 -3 -57 7 -57 52 0 22 -5 50 -11 64 -11 23 -9 28 19 54 31 29 50 87 38 117 -13 34 -105 47 -143 20z"/>
 <path d="M1202 648 c-17 -17 -15 -55 4 -62 23 -9 56 23 52 48 -3 24 -37 33 -56 14z"/>
 </g>

</svg>