<!DOCTYPE svg PUBLIC "-//W3C//DTD SVG 20010904//EN" "http://www.w3.org/TR/2001/REC-SVG-20010904/DTD/svg10.dtd">
<svg version="1.0" xmlns="http://www.w3.org/2000/svg" width="378px" height="377px" viewBox="0 0 3780 3770" preserveAspectRatio="xMidYMid meet">
<g id="layer1" fill="#ffffff" stroke="none">
 <path d="M1120 3058 c0 -62 -3 -158 -7 -213 l-6 -100 -102 -100 c-224 -221 -335 -476 -335 -772 0 -312 152 -625 402 -828 185 -151 402 -243 646 -276 115 -15 342 -6 452 20 553 126 930 566 931 1086 1 542 -414 1001 -995 1101 -119 21 -385 15 -503 -10 l-82 -18 -113 64 c-62 36 -152 86 -200 112 l-88 48 0 -114z m1195 -1159 l310 -311 -273 138 -273 139 -159 -161 -159 -160 -313 314 -313 314 200 -102 c110 -56 234 -120 276 -141 l75 -39 160 159 c87 88 159 160 159 160 0 1 140 -139 310 -310z"/>
 </g>

</svg>