<!DOCTYPE svg PUBLIC "-//W3C//DTD SVG 20010904//EN" "http://www.w3.org/TR/2001/REC-SVG-20010904/DTD/svg10.dtd">
<svg version="1.0" xmlns="http://www.w3.org/2000/svg" width="752px" height="753px" viewBox="0 0 7520 7530" preserveAspectRatio="xMidYMid meet">
<g id="layer1" fill="#ffffff" stroke="none">
 <path d="M2640 5360 l0 -1700 -215 0 -215 0 0 1125 0 1125 -350 0 -350 0 0 -1500 0 -1500 2250 0 2250 0 0 1500 0 1500 -350 0 -350 0 0 -1125 0 -1125 -210 0 -210 0 0 1700 0 1700 -1125 0 -1125 0 0 -1700z"/>
 <path d="M3090 1765 l0 -675 675 0 675 0 0 675 0 675 -675 0 -675 0 0 -675z"/>
 </g>
<g id="layer2" fill="#000064" stroke="none">
 <path d="M0 3765 l0 -3765 3760 0 3760 0 0 3765 0 3765 -3760 0 -3760 0 0 -3765z m4890 1595 l0 -1700 210 0 210 0 0 1125 0 1125 350 0 350 0 0 -1500 0 -1500 -2250 0 -2250 0 0 1500 0 1500 350 0 350 0 0 -1125 0 -1125 215 0 215 0 0 1700 0 1700 1125 0 1125 0 0 -1700z m-450 -3595 l0 -675 -675 0 -675 0 0 675 0 675 675 0 675 0 0 -675z"/>
 </g>

</svg>