<?xml version="1.0" standalone="no"?>
<!DOCTYPE svg PUBLIC "-//W3C//DTD SVG 20010904//EN"
 "http://www.w3.org/TR/2001/REC-SVG-20010904/DTD/svg10.dtd">
<svg version="1.0" xmlns="http://www.w3.org/2000/svg"
 width="300.000000pt" height="300.000000pt" viewBox="0 0 300.000000 300.000000"
 preserveAspectRatio="xMidYMid meet">
<metadata>
Created by potrace 1.10, written by Peter Selinger 2001-2011
</metadata>
<g transform="translate(0.000000,300.000000) scale(0.050000,-0.050000)"
fill="#000064" stroke="none">
<path d="M2596 5969 c-1623 -221 -2782 -1734 -2567 -3349 276 -2073 2498
-3236 4352 -2278 1584 819 2100 2836 1106 4329 -624 939 -1766 1452 -2891
1298z m944 -1369 l0 -540 -540 0 -540 0 0 540 0 540 540 0 540 0 0 -540z
m1260 -2120 l0 -1200 -280 0 -280 0 0 900 0 900 -170 0 -170 0 0 -1360 0
-1360 -900 0 -900 0 0 1360 0 1360 -170 0 -170 0 0 -900 0 -900 -280 0 -280 0
0 1200 0 1200 1800 0 1800 0 0 -1200z"/>
</g>
</svg>
