<!DOCTYPE svg PUBLIC "-//W3C//DTD SVG 20010904//EN" "http://www.w3.org/TR/2001/REC-SVG-20010904/DTD/svg10.dtd">
<svg version="1.0" xmlns="http://www.w3.org/2000/svg" width="750px" height="751px" viewBox="0 0 7500 7510" preserveAspectRatio="xMidYMid meet">
<g id="layer1" fill="#000000" stroke="none">
 <path d="M3569 6109 c-12 -24 -9 -172 4 -186 5 -4 85 -8 178 -8 140 0 171 3 179 15 14 22 12 174 -2 188 -8 8 -63 12 -180 12 -160 0 -168 -1 -179 -21z"/>
 <path d="M3982 1558 c-43 -21 -43 -93 0 -117 55 -31 123 26 97 82 -6 14 -22 30 -36 36 -28 13 -31 13 -61 -1z"/>
 <path d="M3651 1516 c-6 -7 -9 -21 -5 -30 9 -23 202 -24 210 -1 4 8 1 22 -6 30 -17 20 -182 21 -199 1z"/>
 </g>
<g id="layer2" fill="#fefefe" stroke="none">
 <path d="M2515 6210 c-11 -4 -31 -20 -45 -35 l-25 -27 -3 -2380 -2 -2381 25 -33 c52 -69 -40 -64 1285 -64 1332 0 1247 -4 1290 65 20 32 20 44 20 2410 l0 2377 -39 39 -39 39 -1223 -1 c-673 0 -1233 -4 -1244 -9z m1413 -87 c17 -16 17 -187 -1 -201 -19 -16 -342 -15 -355 1 -13 16 -13 187 0 201 15 16 339 15 356 -1z m952 -2358 l0 -2055 -1125 0 -1125 0 0 2055 0 2055 1125 0 1125 0 0 -2055z m-830 -2207 c0 -4 6 -7 13 -5 6 1 11 -4 10 -10 -2 -7 2 -13 7 -13 15 0 9 -62 -8 -82 -8 -10 -19 -15 -23 -12 -5 3 -9 0 -9 -5 0 -6 -11 -11 -25 -11 -14 0 -25 5 -25 11 0 5 -4 8 -9 5 -5 -3 -14 1 -21 9 -15 18 -22 85 -9 85 5 0 9 7 9 16 0 8 5 12 10 9 6 -3 10 -2 10 3 0 5 16 9 35 9 19 0 35 -4 35 -9z m-194 -60 l-1 -30 -104 0 c-101 0 -105 0 -108 23 -2 12 2 26 9 31 7 4 56 8 109 7 l96 -1 -1 -30z"/>
 </g>

</svg>