<!DOCTYPE svg PUBLIC "-//W3C//DTD SVG 20010904//EN" "http://www.w3.org/TR/2001/REC-SVG-20010904/DTD/svg10.dtd">
<svg version="1.0" xmlns="http://www.w3.org/2000/svg" width="752px" height="753px" viewBox="0 0 7520 7530" preserveAspectRatio="xMidYMid meet">
<g id="layer1" fill="#fefeff" stroke="none">
 <path d="M2525 6191 c-11 -5 -29 -19 -40 -31 -20 -22 -20 -38 -23 -2381 -2 -2097 0 -2363 13 -2389 33 -64 -48 -60 1301 -58 l1226 3 29 33 29 32 0 2360 c0 1808 -3 2365 -12 2385 -26 58 39 55 -1285 54 -670 0 -1227 -4 -1238 -8z m1413 -73 c16 -16 16 -180 0 -196 -8 -8 -62 -12 -178 -12 -116 0 -170 4 -178 12 -16 16 -16 180 0 196 8 8 62 12 178 12 116 0 170 -4 178 -12z m942 -2353 l0 -2055 -1115 0 -1115 0 0 2055 0 2055 1115 0 1115 0 0 -2055z m-613 -2197 c48 -45 16 -122 -52 -122 -27 0 -43 6 -56 23 -59 72 40 163 108 99z m-399 -46 c6 -43 -13 -52 -107 -52 -54 0 -92 5 -99 12 -13 13 -16 51 -5 62 4 4 52 5 107 4 97 -3 101 -4 104 -26z"/>
 </g>
<g id="layer2" fill="#000064" stroke="none">
 <path d="M0 3765 l0 -3765 3760 0 3760 0 0 3765 0 3765 -3760 0 -3760 0 0 -3765z m5009 2421 c15 -8 32 -26 39 -41 9 -20 12 -577 12 -2385 l0 -2360 -29 -32 -29 -33 -1226 -3 c-1349 -2 -1268 -6 -1301 58 -13 26 -15 292 -13 2389 3 2343 3 2359 23 2381 11 12 29 26 40 31 11 4 568 8 1238 8 1036 1 1222 -1 1246 -13z"/>
 <path d="M3582 6118 c-16 -16 -16 -180 0 -196 8 -8 62 -12 178 -12 116 0 170 4 178 12 16 16 16 180 0 196 -8 8 -62 12 -178 12 -116 0 -170 -4 -178 -12z"/>
 <path d="M2650 3765 l0 -2055 1115 0 1115 0 0 2055 0 2055 -1115 0 -1115 0 0 -2055z"/>
 <path d="M4161 1564 c-42 -54 -13 -118 54 -118 68 0 100 77 52 122 -33 31 -80 29 -106 -4z"/>
 <path d="M3657 1544 c-11 -11 -8 -49 5 -62 7 -7 45 -12 99 -12 94 0 113 9 107 52 -3 22 -7 23 -104 26 -55 1 -103 0 -107 -4z"/>
 </g>

</svg>