<?xml version="1.0" standalone="no"?>
<!DOCTYPE svg PUBLIC "-//W3C//DTD SVG 20010904//EN"
 "http://www.w3.org/TR/2001/REC-SVG-20010904/DTD/svg10.dtd">
<svg version="1.0" xmlns="http://www.w3.org/2000/svg"
 width="300.000000pt" height="300.000000pt" viewBox="0 0 300.000000 300.000000"
 preserveAspectRatio="xMidYMid meet">
<metadata>
Created by potrace 1.10, written by Peter Selinger 2001-2011
</metadata>
<g transform="translate(0.000000,300.000000) scale(0.050000,-0.050000)"
fill="#000064" stroke="none">
<path d="M2596 5969 c-1623 -221 -2782 -1734 -2567 -3349 276 -2073 2498
-3236 4352 -2278 1584 819 2100 2836 1106 4329 -624 939 -1766 1452 -2891
1298z m149 -1702 l235 -33 0 -947 0 -947 -45 1 c-25 0 -265 34 -535 75 l-490
74 -5 952 -5 952 305 -46 c168 -26 411 -62 540 -81z m1355 -822 l0 -955 -515
-75 c-283 -42 -526 -76 -540 -75 -20 0 -25 203 -25 946 l0 947 535 81 c294 45
537 83 540 84 3 1 5 -428 5 -953z m-1625 -1135 c257 -39 475 -70 485 -70 22 0
27 -301 7 -375 -10 -38 -21 -43 -74 -34 -35 6 -121 20 -193 30 -71 10 -273 40
-449 67 -175 27 -326 45 -335 40 -9 -6 -16 89 -16 210 l0 221 55 -10 c30 -5
264 -41 520 -79z m1625 -126 c0 -191 -4 -216 -35 -217 -70 -3 -276 -29 -310
-40 -20 -5 -74 -13 -120 -17 -47 -3 -107 -12 -135 -18 -27 -7 -95 -17 -150
-23 -55 -6 -116 -16 -136 -22 -171 -51 -193 -22 -194 255 l0 133 225 34 c124
18 360 55 525 80 165 26 307 48 315 49 8 1 15 -95 15 -214z"/>
</g>
</svg>
