<!DOCTYPE svg PUBLIC "-//W3C//DTD SVG 20010904//EN" "http://www.w3.org/TR/2001/REC-SVG-20010904/DTD/svg10.dtd">
<svg version="1.0" xmlns="http://www.w3.org/2000/svg" width="750px" height="751px" viewBox="0 0 7500 7510" preserveAspectRatio="xMidYMid meet">
<g id="layer1" fill="#000000" stroke="none">
 <path d="M3710 5680 c-13 -9 -1528 -430 -1544 -430 -3 0 -6 -495 -6 -1100 0 -605 2 -1100 4 -1100 2 0 360 99 795 219 l792 219 791 -219 c435 -120 793 -219 795 -219 1 0 3 494 3 1098 l0 1099 -767 212 c-423 116 -776 216 -785 221 -22 12 -58 12 -78 0z m10 -1103 l0 -1033 -732 -203 c-403 -111 -741 -204 -750 -207 -17 -5 -18 49 -18 1030 l0 1035 38 11 c20 5 352 97 737 204 385 107 706 195 713 195 9 1 12 -212 12 -1032z m767 843 c379 -105 712 -197 741 -206 l52 -15 0 -1035 c0 -825 -3 -1035 -12 -1032 -7 3 -345 96 -750 208 l-738 204 0 1033 c0 670 3 1033 10 1033 5 0 319 -86 697 -190z"/>
 <path d="M3701 2704 c-26 -21 -31 -33 -31 -69 0 -36 5 -48 31 -69 38 -33 69 -33 107 -1 38 32 47 67 27 109 -28 59 -85 71 -134 30z"/>
 <path d="M3361 2594 c-26 -21 -31 -33 -31 -69 0 -36 5 -48 31 -69 40 -34 71 -33 111 3 25 22 32 36 32 66 0 30 -7 44 -32 66 -40 36 -71 37 -111 3z"/>
 </g>
<g id="layer2" fill="#fdfdfd" stroke="none">
 <path d="M2995 5414 c-385 -107 -717 -199 -737 -204 l-38 -11 0 -1035 c0 -981 1 -1035 18 -1030 9 3 347 96 750 207 l732 203 0 1033 c0 820 -3 1033 -12 1032 -7 0 -328 -88 -713 -195z"/>
 <path d="M3780 4577 l0 -1033 738 -204 c405 -112 743 -205 750 -208 9 -3 12 207 12 1032 l0 1035 -52 15 c-224 64 -1430 396 -1438 396 -7 0 -10 -363 -10 -1033z"/>
 <path d="M3581 2974 c-89 -24 -171 -74 -246 -149 -115 -115 -165 -236 -165 -400 0 -164 50 -285 165 -400 215 -215 552 -223 775 -17 74 68 125 146 157 241 28 83 32 248 7 332 -56 188 -205 337 -393 393 -68 20 -225 20 -300 0z m213 -255 c32 -15 59 -70 50 -104 -8 -32 -59 -75 -89 -75 -13 0 -37 12 -54 26 -26 21 -31 33 -31 69 0 36 5 48 31 69 34 29 55 32 93 15z m-322 -128 c25 -22 32 -36 32 -66 0 -30 -7 -44 -32 -66 -40 -36 -71 -37 -111 -3 -26 21 -31 33 -31 69 0 36 5 48 31 69 40 34 71 33 111 -3z"/>
 </g>

</svg>