<!DOCTYPE svg PUBLIC "-//W3C//DTD SVG 20010904//EN" "http://www.w3.org/TR/2001/REC-SVG-20010904/DTD/svg10.dtd">
<svg version="1.0" xmlns="http://www.w3.org/2000/svg" width="752px" height="753px" viewBox="0 0 7520 7530" preserveAspectRatio="xMidYMid meet">
<g id="layer1" fill="#fefeff" stroke="none">
 <path d="M3150 4974 c-300 -45 -596 -90 -657 -100 l-113 -17 0 -1192 c0 -1131 1 -1193 18 -1190 9 2 313 48 675 102 l657 98 0 1192 c0 1130 -1 1193 -17 1192 -10 -1 -263 -39 -563 -85z"/>
 <path d="M3790 3870 c0 -944 3 -1192 13 -1195 6 -3 298 -47 647 -100 349 -52 647 -97 663 -99 l27 -5 0 1194 c0 657 -4 1195 -8 1195 -5 0 -307 45 -672 100 -366 55 -666 100 -667 100 -2 0 -3 -536 -3 -1190z"/>
 </g>
<g id="layer2" fill="#000064" stroke="none">
 <path d="M0 3765 l0 -3765 3760 0 3760 0 0 3765 0 3765 -3760 0 -3760 0 0 -3765z m3730 102 l0 -1192 -657 -98 c-362 -54 -666 -100 -675 -102 -17 -3 -18 59 -18 1190 l0 1192 113 17 c61 10 357 55 657 100 300 46 553 84 563 85 16 1 17 -62 17 -1192z m730 1093 c365 -55 667 -100 672 -100 4 0 8 -538 8 -1195 l0 -1194 -27 5 c-16 2 -314 47 -663 99 -349 53 -641 97 -647 100 -10 3 -13 251 -13 1195 0 654 1 1190 3 1190 1 0 301 -45 667 -100z"/>
 </g>

</svg>