<?xml version="1.0" standalone="no"?>
<!DOCTYPE svg PUBLIC "-//W3C//DTD SVG 20010904//EN"
 "http://www.w3.org/TR/2001/REC-SVG-20010904/DTD/svg10.dtd">
<svg version="1.0" xmlns="http://www.w3.org/2000/svg"
 width="300.000000pt" height="300.000000pt" viewBox="0 0 300.000000 300.000000"
 preserveAspectRatio="xMidYMid meet">
<metadata>
Created by potrace 1.10, written by Peter Selinger 2001-2011
</metadata>
<g transform="translate(0.000000,300.000000) scale(0.050000,-0.050000)"
fill="#000064" stroke="none">
<path d="M2596 5969 c-1623 -221 -2782 -1734 -2567 -3349 276 -2073 2498
-3236 4352 -2278 1584 819 2100 2836 1106 4329 -624 939 -1766 1452 -2891
1298z m2204 -1829 l0 -240 -1800 0 -1800 0 0 240 0 240 1800 0 1800 0 0 -240z
m0 -1140 l0 -240 -1800 0 -1800 0 0 240 0 240 1800 0 1800 0 0 -240z m0 -1140
l0 -240 -1800 0 -1800 0 0 240 0 240 1800 0 1800 0 0 -240z"/>
</g>
</svg>
