<!DOCTYPE svg PUBLIC "-//W3C//DTD SVG 20010904//EN" "http://www.w3.org/TR/2001/REC-SVG-20010904/DTD/svg10.dtd">
<svg version="1.0" xmlns="http://www.w3.org/2000/svg" width="376px" height="375px" viewBox="0 0 3760 3750" preserveAspectRatio="xMidYMid meet">
<g id="layer1" fill="#ffffff" stroke="none">
 <path d="M1385 2659 c-99 -13 -225 -53 -332 -106 -121 -59 -122 -73 -2 -73 139 0 253 -31 378 -102 l54 -31 -54 -17 c-85 -26 -130 -54 -185 -112 -50 -53 -74 -90 -89 -136 -7 -23 -6 -23 54 -16 34 3 61 3 61 -2 0 -5 -25 -22 -55 -38 -102 -53 -182 -172 -192 -285 -3 -34 -2 -61 3 -61 5 0 33 9 62 20 29 11 57 20 63 20 6 0 -10 -23 -35 -50 -65 -74 -90 -144 -90 -255 0 -72 5 -100 23 -142 13 -29 27 -53 31 -53 5 0 39 32 77 71 166 172 361 273 603 312 l85 13 1 -85 c0 -75 4 -94 32 -151 39 -82 108 -152 192 -193 59 -29 73 -32 160 -32 106 1 167 21 247 82 l43 32 67 -20 c38 -12 89 -32 116 -47 26 -14 50 -22 54 -18 12 12 -36 95 -84 147 l-46 49 34 -6 c19 -4 58 -16 87 -26 29 -11 56 -17 59 -14 10 10 -80 118 -134 161 l-52 40 0 82 c-3 253 -116 522 -304 720 -241 253 -572 367 -932 322z"/>
 </g>

</svg>